<svg xmlns="http://www.w3.org/2000/svg" stroke="#f5f6fa" viewBox="0 0 24 24" id="Whatsapp--Streamline-Font-Awesome" height="24" width="24"><desc>Whatsapp Streamline Icon: https://streamlinehq.com</desc><!--! Font Awesome Free 6.5.2 by @fontawesome - https://fontawesome.com License - https://fontawesome.com/license/free (Icons: CC BY 4.0, Fonts: SIL OFL 1.1, Code: MIT License) Copyright 2024 Fonticons, Inc.--><path d="M20.23725 3.65775C18.037499999999998 1.4527499999999998 15.108 0.24000000000000002 11.994749999999998 0.24000000000000002c-6.425999999999999 0 -11.655 5.229 -11.655 11.655 0 2.0527499999999996 0.5355 4.05825 1.5539999999999998 5.8275L0.24000000000000002 23.759999999999998l6.17925 -1.62225c1.7009999999999998 0.9292499999999999 3.6172500000000003 1.4175 5.57025 1.4175h0.00525c6.42075 0 11.765249999999998 -5.229 11.765249999999998 -11.655 0 -3.11325 -1.323 -6.0375 -3.5227499999999994 -8.2425Zm-8.2425 17.933999999999997c-1.7429999999999999 0 -3.4492499999999997 -0.46724999999999994 -4.935 -1.3492499999999998l-0.35174999999999995 -0.21 -3.6644999999999994 0.96075 0.9765 -3.5752499999999996 -0.231 -0.3675c-0.97125 -1.5434999999999999 -1.4805 -3.32325 -1.4805 -5.1555 0 -5.33925 4.347 -9.68625 9.6915 -9.68625 2.58825 0 5.019 1.0079999999999998 6.846 2.8402499999999997s2.9505 4.262999999999999 2.9452499999999997 6.851249999999999c0 5.344499999999999 -4.457249999999999 9.6915 -9.7965 9.6915Zm5.313 -7.2555c-0.28874999999999995 -0.147 -1.7219999999999998 -0.8504999999999999 -1.9897500000000001 -0.945 -0.26775 -0.09975 -0.462 -0.147 -0.65625 0.147 -0.19424999999999998 0.294 -0.7507499999999999 0.945 -0.924 1.1445 -0.168 0.19424999999999998 -0.34125 0.22049999999999997 -0.63 0.0735 -1.7115 -0.85575 -2.835 -1.52775 -3.9637499999999997 -3.4650000000000003 -0.29925 -0.5145 0.29925 -0.47774999999999995 0.85575 -1.5907499999999999 0.0945 -0.19424999999999998 0.04725 -0.36224999999999996 -0.02625 -0.50925 -0.0735 -0.147 -0.65625 -1.58025 -0.8977499999999999 -2.163 -0.23625 -0.567 -0.47774999999999995 -0.48825 -0.65625 -0.49875 -0.168 -0.0105 -0.36224999999999996 -0.0105 -0.5565 -0.0105 -0.19424999999999998 0 -0.50925 0.0735 -0.7769999999999999 0.36224999999999996 -0.26775 0.294 -1.0185 0.9975 -1.0185 2.43075s1.0447499999999998 2.81925 1.1864999999999999 3.0135c0.147 0.19424999999999998 2.0527499999999996 3.1342499999999998 4.976999999999999 4.3995 1.848 0.798 2.5725000000000002 0.8662500000000001 3.4964999999999997 0.7297499999999999 0.56175 -0.084 1.7219999999999998 -0.7034999999999999 1.9635 -1.386 0.2415 -0.6825 0.2415 -1.2652499999999998 0.168 -1.386 -0.06824999999999999 -0.13125 -0.2625 -0.20475 -0.5512499999999999 -0.3465Z" fill="#f5f6fa" stroke-width="0.0536"></path></svg>